<?xml version="1.0" encoding="UTF-8" standalone="no"?>
<!DOCTYPE svg PUBLIC "-//W3C//DTD SVG 1.1//EN"
 "http://www.w3.org/Graphics/SVG/1.1/DTD/svg11.dtd">
<!-- Generated by graphviz version 2.38.0 (20140413.2041)
 -->
<!-- Title: Course Pages: 1 -->
<svg width="828pt" height="332pt"
 viewBox="0.00 0.00 828.46 332.00" xmlns="http://www.w3.org/2000/svg" xmlns:xlink="http://www.w3.org/1999/xlink">
<g id="graph0" class="graph" transform="scale(1 1) rotate(0) translate(4 328)">
<title>Course</title>
<polygon fill="white" stroke="none" points="-4,4 -4,-328 824.46,-328 824.46,4 -4,4"/>
<!-- algorithms -->
<g id="node1" class="node"><title>algorithms</title>
<ellipse fill="none" stroke="black" cx="261.991" cy="-234" rx="47.8668" ry="18"/>
<text text-anchor="middle" x="261.991" y="-229.8" font-family="Times,serif" font-size="14.00">algorithms</text>
</g>
<!-- data structures -->
<g id="node2" class="node"><title>data structures</title>
<ellipse fill="none" stroke="black" cx="261.991" cy="-162" rx="61.3549" ry="18"/>
<text text-anchor="middle" x="261.991" y="-157.8" font-family="Times,serif" font-size="14.00">data structures</text>
</g>
<!-- algorithms&#45;&gt;data structures -->
<g id="edge1" class="edge"><title>algorithms&#45;&gt;data structures</title>
<path fill="none" stroke="black" d="M261.991,-215.697C261.991,-207.983 261.991,-198.712 261.991,-190.112"/>
<polygon fill="black" stroke="black" points="265.491,-190.104 261.991,-180.104 258.491,-190.104 265.491,-190.104"/>
</g>
<!-- discrete math -->
<g id="node8" class="node"><title>discrete math</title>
<ellipse fill="none" stroke="black" cx="185.991" cy="-90" rx="57.4959" ry="18"/>
<text text-anchor="middle" x="185.991" y="-85.8" font-family="Times,serif" font-size="14.00">discrete math</text>
</g>
<!-- data structures&#45;&gt;discrete math -->
<g id="edge6" class="edge"><title>data structures&#45;&gt;discrete math</title>
<path fill="none" stroke="black" d="M243.98,-144.411C234.161,-135.367 221.852,-124.03 211.103,-114.13"/>
<polygon fill="black" stroke="black" points="213.337,-111.429 203.61,-107.228 208.595,-116.578 213.337,-111.429"/>
</g>
<!-- calculus -->
<g id="node3" class="node"><title>calculus</title>
<ellipse fill="none" stroke="black" cx="761.991" cy="-306" rx="39.1627" ry="18"/>
<text text-anchor="middle" x="761.991" y="-301.8" font-family="Times,serif" font-size="14.00">calculus</text>
</g>
<!-- linear algebra -->
<g id="node4" class="node"><title>linear algebra</title>
<ellipse fill="none" stroke="black" cx="761.991" cy="-234" rx="58.4391" ry="18"/>
<text text-anchor="middle" x="761.991" y="-229.8" font-family="Times,serif" font-size="14.00">linear algebra</text>
</g>
<!-- calculus&#45;&gt;linear algebra -->
<g id="edge2" class="edge"><title>calculus&#45;&gt;linear algebra</title>
<path fill="none" stroke="black" d="M761.991,-287.697C761.991,-279.983 761.991,-270.712 761.991,-262.112"/>
<polygon fill="black" stroke="black" points="765.491,-262.104 761.991,-252.104 758.491,-262.104 765.491,-262.104"/>
</g>
<!-- compilers -->
<g id="node5" class="node"><title>compilers</title>
<ellipse fill="none" stroke="black" cx="150.991" cy="-234" rx="44.9596" ry="18"/>
<text text-anchor="middle" x="150.991" y="-229.8" font-family="Times,serif" font-size="14.00">compilers</text>
</g>
<!-- compilers&#45;&gt;data structures -->
<g id="edge3" class="edge"><title>compilers&#45;&gt;data structures</title>
<path fill="none" stroke="black" d="M173.99,-218.496C189.672,-208.607 210.699,-195.346 228.266,-184.268"/>
<polygon fill="black" stroke="black" points="230.5,-186.997 237.091,-178.703 226.766,-181.076 230.5,-186.997"/>
</g>
<!-- formal languages -->
<g id="node6" class="node"><title>formal languages</title>
<ellipse fill="none" stroke="black" cx="110.991" cy="-162" rx="71.0031" ry="18"/>
<text text-anchor="middle" x="110.991" y="-157.8" font-family="Times,serif" font-size="14.00">formal languages</text>
</g>
<!-- compilers&#45;&gt;formal languages -->
<g id="edge4" class="edge"><title>compilers&#45;&gt;formal languages</title>
<path fill="none" stroke="black" d="M141.308,-216.055C136.709,-208.007 131.108,-198.205 125.977,-189.226"/>
<polygon fill="black" stroke="black" points="128.863,-187.221 120.863,-180.275 122.785,-190.694 128.863,-187.221"/>
</g>
<!-- computer organization -->
<g id="node7" class="node"><title>computer organization</title>
<ellipse fill="none" stroke="black" cx="430.991" cy="-162" rx="89.5176" ry="18"/>
<text text-anchor="middle" x="430.991" y="-157.8" font-family="Times,serif" font-size="14.00">computer organization</text>
</g>
<!-- compilers&#45;&gt;computer organization -->
<g id="edge5" class="edge"><title>compilers&#45;&gt;computer organization</title>
<path fill="none" stroke="black" d="M184.579,-222C191.312,-219.915 198.356,-217.82 204.991,-216 257.203,-201.681 316.852,-187.795 361.755,-177.831"/>
<polygon fill="black" stroke="black" points="362.671,-181.213 371.681,-175.639 361.161,-174.378 362.671,-181.213"/>
</g>
<!-- formal languages&#45;&gt;discrete math -->
<g id="edge9" class="edge"><title>formal languages&#45;&gt;discrete math</title>
<path fill="none" stroke="black" d="M128.765,-144.411C138.455,-135.367 150.602,-124.03 161.209,-114.13"/>
<polygon fill="black" stroke="black" points="163.681,-116.61 168.603,-107.228 158.905,-111.493 163.681,-116.61"/>
</g>
<!-- intro to programming -->
<g id="node10" class="node"><title>intro to programming</title>
<ellipse fill="none" stroke="black" cx="185.991" cy="-18" rx="86.4964" ry="18"/>
<text text-anchor="middle" x="185.991" y="-13.8" font-family="Times,serif" font-size="14.00">intro to programming</text>
</g>
<!-- discrete math&#45;&gt;intro to programming -->
<g id="edge8" class="edge"><title>discrete math&#45;&gt;intro to programming</title>
<path fill="none" stroke="black" d="M185.991,-71.6966C185.991,-63.9827 185.991,-54.7125 185.991,-46.1124"/>
<polygon fill="black" stroke="black" points="189.491,-46.1043 185.991,-36.1043 182.491,-46.1044 189.491,-46.1043"/>
</g>
<!-- databases -->
<g id="node9" class="node"><title>databases</title>
<ellipse fill="none" stroke="black" cx="43.9909" cy="-234" rx="43.9819" ry="18"/>
<text text-anchor="middle" x="43.9909" y="-229.8" font-family="Times,serif" font-size="14.00">databases</text>
</g>
<!-- databases&#45;&gt;data structures -->
<g id="edge7" class="edge"><title>databases&#45;&gt;data structures</title>
<path fill="none" stroke="black" d="M77.5757,-222.216C113.622,-210.641 171.25,-192.137 212.492,-178.894"/>
<polygon fill="black" stroke="black" points="213.625,-182.207 222.076,-175.817 211.484,-175.542 213.625,-182.207"/>
</g>
<!-- networks -->
<g id="node11" class="node"><title>networks</title>
<ellipse fill="none" stroke="black" cx="611.991" cy="-306" rx="42.5542" ry="18"/>
<text text-anchor="middle" x="611.991" y="-301.8" font-family="Times,serif" font-size="14.00">networks</text>
</g>
<!-- operating systems -->
<g id="node12" class="node"><title>operating systems</title>
<ellipse fill="none" stroke="black" cx="611.991" cy="-234" rx="73.9428" ry="18"/>
<text text-anchor="middle" x="611.991" y="-229.8" font-family="Times,serif" font-size="14.00">operating systems</text>
</g>
<!-- networks&#45;&gt;operating systems -->
<g id="edge10" class="edge"><title>networks&#45;&gt;operating systems</title>
<path fill="none" stroke="black" d="M611.991,-287.697C611.991,-279.983 611.991,-270.712 611.991,-262.112"/>
<polygon fill="black" stroke="black" points="615.491,-262.104 611.991,-252.104 608.491,-262.104 615.491,-262.104"/>
</g>
<!-- operating systems&#45;&gt;data structures -->
<g id="edge11" class="edge"><title>operating systems&#45;&gt;data structures</title>
<path fill="none" stroke="black" d="M557.555,-221.678C548.041,-219.749 538.233,-217.791 528.991,-216 441.611,-199.069 419.05,-198.51 331.991,-180 327.071,-178.954 321.969,-177.817 316.864,-176.644"/>
<polygon fill="black" stroke="black" points="317.625,-173.227 307.09,-174.356 316.03,-180.043 317.625,-173.227"/>
</g>
<!-- operating systems&#45;&gt;computer organization -->
<g id="edge12" class="edge"><title>operating systems&#45;&gt;computer organization</title>
<path fill="none" stroke="black" d="M574.488,-218.496C547.018,-207.872 509.49,-193.359 479.701,-181.838"/>
<polygon fill="black" stroke="black" points="480.914,-178.555 470.325,-178.212 478.389,-185.083 480.914,-178.555"/>
</g>
<!-- programming languages -->
<g id="node13" class="node"><title>programming languages</title>
<ellipse fill="none" stroke="black" cx="423.991" cy="-234" rx="95.6339" ry="18"/>
<text text-anchor="middle" x="423.991" y="-229.8" font-family="Times,serif" font-size="14.00">programming languages</text>
</g>
<!-- programming languages&#45;&gt;data structures -->
<g id="edge13" class="edge"><title>programming languages&#45;&gt;data structures</title>
<path fill="none" stroke="black" d="M387.635,-217.291C362.876,-206.592 330.024,-192.397 304.122,-181.205"/>
<polygon fill="black" stroke="black" points="305.49,-177.983 294.922,-177.229 302.713,-184.409 305.49,-177.983"/>
</g>
<!-- programming languages&#45;&gt;computer organization -->
<g id="edge14" class="edge"><title>programming languages&#45;&gt;computer organization</title>
<path fill="none" stroke="black" d="M425.721,-215.697C426.493,-207.983 427.42,-198.712 428.28,-190.112"/>
<polygon fill="black" stroke="black" points="431.768,-190.403 429.281,-180.104 424.803,-189.706 431.768,-190.403"/>
</g>
</g>
</svg>
